HIERARCHY
ROOT Hips
{
    OFFSET 0.000000 0.000000 0.000000
    CHANNELS 6 Xposition Yposition Zposition Zrotation Xrotation Yrotation
    JOINT Spine
    {
        OFFSET -0.000000 14.517291 0.000000
        CHANNELS 3 Zrotation Xrotation Yrotation
        JOINT Spine1
        {
            OFFSET -0.000000 37.558300 0.000000
            CHANNELS 3 Zrotation Xrotation Yrotation
            JOINT Neck
            {
                OFFSET -0.000000 37.404057 3.400369
                CHANNELS 3 Zrotation Xrotation Yrotation
                JOINT Head
                {
                    OFFSET -0.000000 24.785618 -3.540803
                    CHANNELS 3 Zrotation Xrotation Yrotation
                    End Site
                    {
                        OFFSET -0.000000 35.408028 0.000000
                    }
                }
            }
            JOINT LeftShoulder
            {
                OFFSET 6.992933 33.973492 -0.192664
                CHANNELS 3 Zrotation Xrotation Yrotation
                JOINT LeftArm
                {
                    OFFSET 21.527611 0.000000 0.000000
                    CHANNELS 3 Zrotation Xrotation Yrotation
                    JOINT LeftForeArm
                    {
                        OFFSET 56.353916 0.000000 0.000000
                        CHANNELS 3 Zrotation Xrotation Yrotation
                        JOINT LeftHand
                        {
                            OFFSET 47.774071 0.000000 0.000000
                            CHANNELS 3 Zrotation Xrotation Yrotation
                            End Site
                            {
                                OFFSET 26.556021 0.000000 0.000000
                            }
                        }
                    }
                }
            }
            JOINT RightShoulder
            {
                OFFSET -7.065357 33.973492 -0.192664
                CHANNELS 3 Zrotation Xrotation Yrotation
                JOINT RightArm
                {
                    OFFSET -21.527611 0.000000 0.000000
                    CHANNELS 3 Zrotation Xrotation Yrotation
                    JOINT RightForeArm
                    {
                        OFFSET -56.353916 0.000000 0.000000
                        CHANNELS 3 Zrotation Xrotation Yrotation
                        JOINT RightHand
                        {
                            OFFSET -47.774071 0.000000 0.000000
                            CHANNELS 3 Zrotation Xrotation Yrotation
                            End Site
                            {
                                OFFSET -26.556021 0.000000 0.000000
                            }
                        }
                    }
                }
            }
        }
    }
    JOINT LeftUpLeg
    {
        OFFSET 17.704014 0.000000 0.000000
        CHANNELS 3 Zrotation Xrotation Yrotation
        JOINT LeftLeg
        {
            OFFSET -0.000000 -81.181816 0.000000
            CHANNELS 3 Zrotation Xrotation Yrotation
            JOINT LeftFoot
            {
                OFFSET -0.000000 -62.821102 0.000000
                CHANNELS 3 Zrotation Xrotation Yrotation
                JOINT LeftToeBase
                {
                    OFFSET -0.000000 -11.507608 26.556021
                    CHANNELS 3 Zrotation Xrotation Yrotation
                    End Site
                    {
                        OFFSET -0.000000 0.000000 7.081605
                    }
                }
            }
        }
    }
    JOINT RightUpLeg
    {
        OFFSET -17.704014 0.000000 0.000000
        CHANNELS 3 Zrotation Xrotation Yrotation
        JOINT RightLeg
        {
            OFFSET -0.000000 -81.181816 0.000000
            CHANNELS 3 Zrotation Xrotation Yrotation
            JOINT RightFoot
            {
                OFFSET -0.000000 -62.821102 0.000000
                CHANNELS 3 Zrotation Xrotation Yrotation
                JOINT RightToeBase
                {
                    OFFSET -0.000000 -11.507608 26.556021
                    CHANNELS 3 Zrotation Xrotation Yrotation
                    End Site
                    {
                        OFFSET -0.000000 0.000000 7.081605
                    }
                }
            }
        }
    }
}
MOTION
Frames:    14
Frame Time:    0.008333
4.340958    154.520828    -98.931679    -1.633239    0.358194    10.917209    4.293900    -3.766262    5.856771    -6.867788    1.325656    1.984096    14.869181    -5.539647    3.114935    0.954276    11.661258    0.326481    5.604607    4.177290    -15.068251    -30.492071    20.842819    -54.424564    -19.514866    8.186192    -93.960121    18.157089    -13.902815    -5.593607    -15.727791    -3.648983    2.719267    29.096636    -20.798178    71.517334    -8.416687    -9.694737    52.970776    -9.249733    -7.840130    28.173092    8.946398    -1.519316    -17.655102    -7.076462    33.583069    -31.605825    16.521313    -26.166676    41.682724    0.000000    0.000000    0.000000    -10.622039    -29.276834    0.231445    8.402425    17.405630    -9.451118    6.112157    13.202147    -13.787481    0.000000    0.000000    0.000000    
4.308947    154.533554    -98.919945    -1.625613    0.370831    10.996061    4.256413    -3.772028    5.822166    -6.864118    1.336154    1.973460    14.887174    -5.550482    3.116026    0.931363    11.675889    0.321688    5.600206    4.183624    -15.059552    -30.511665    20.848875    -54.435963    -19.519321    8.207553    -93.937180    18.128929    -13.879087    -5.607783    -15.713248    -3.661247    2.692282    29.110044    -20.757715    71.488388    -8.405712    -9.725863    52.974915    -9.216588    -7.867479    28.166649    8.953161    -1.567783    -17.674133    -7.071790    33.612427    -31.624500    16.488991    -26.144627    41.644379    0.000000    0.000000    0.000000    -10.655427    -29.282486    0.207823    8.413436    17.441998    -9.461755    6.122892    13.159740    -13.832666    0.000000    0.000000    0.000000    
4.271307    154.546280    -98.907974    -1.626985    0.380428    11.099518    4.212011    -3.768689    5.772345    -6.829720    1.327471    1.956473    14.863106    -5.563499    3.103316    0.945345    11.698195    0.311980    5.579911    4.199659    -15.060743    -30.538967    20.856379    -54.426903    -19.529587    8.222726    -93.938263    18.088709    -13.872278    -5.596183    -15.717412    -3.644639    2.665315    29.096670    -20.712034    71.457642    -8.457720    -9.786764    52.962383    -9.151054    -7.889275    28.187010    8.966073    -1.630463    -17.720711    -7.067177    33.665085    -31.653690    16.445284    -26.132454    41.617847    0.000000    0.000000    0.000000    -10.686025    -29.283451    0.171860    8.418639    17.483389    -9.459352    6.160776    13.106550    -13.918845    0.000000    0.000000    0.000000    
4.230477    154.558533    -98.900291    -1.644804    0.392711    11.208405    4.191004    -3.758641    5.728938    -6.814861    1.304688    1.940852    14.894718    -5.576178    3.098592    0.899961    11.708531    0.296863    5.587802    4.214139    -15.058394    -30.570091    20.879696    -54.437740    -19.553123    8.240797    -93.941772    18.165533    -13.880869    -5.565320    -15.689048    -3.631434    2.644502    29.055614    -20.689247    71.400993    -8.502403    -9.812796    52.964748    -9.112309    -7.881393    28.162949    8.995091    -1.701012    -17.783678    -7.073781    33.716953    -31.668545    16.408400    -26.130758    41.602184    0.000000    0.000000    0.000000    -10.700904    -29.290810    0.136427    8.419343    17.526295    -9.448289    6.196695    13.067604    -14.015682    0.000000    0.000000    0.000000    
4.181447    154.571457    -98.884109    -1.674873    0.395351    11.326215    4.171939    -3.746152    5.676497    -6.780430    1.282505    1.922025    14.921210    -5.577039    3.095442    0.844075    11.696933    0.285821    5.594098    4.225752    -15.049526    -30.612289    20.900673    -54.442551    -19.559952    8.260621    -93.937508    18.131842    -13.867157    -5.575255    -15.662951    -3.626946    2.634726    29.027029    -20.677734    71.351913    -8.528873    -9.829548    52.958252    -9.102305    -7.883699    28.170551    9.047167    -1.759304    -17.815928    -7.071305    33.756897    -31.689007    16.400408    -26.115583    41.564079    0.000000    0.000000    0.000000    -10.696347    -29.285311    0.122378    8.418131    17.564377    -9.460152    6.220085    13.024711    -14.089279    0.000000    0.000000    0.000000    
4.127207    154.581223    -98.865631    -1.717766    0.383685    11.455669    4.165591    -3.721427    5.618950    -6.741276    1.261198    1.901579    14.940914    -5.579919    3.094707    0.799495    11.676840    0.279391    5.603996    4.245307    -15.037384    -30.642538    20.908318    -54.451969    -19.550674    8.288864    -93.937408    18.052107    -13.831838    -5.616879    -15.631893    -3.615843    2.634424    28.965666    -20.678173    71.285767    -8.577080    -9.859280    52.960068    -9.088749    -7.887186    28.184393    9.119205    -1.807008    -17.849730    -7.061142    33.800247    -31.740286    16.386955    -26.112555    41.528015    0.000000    0.000000    0.000000    -10.681468    -29.271284    0.125672    8.432275    17.609978    -9.465546    6.236082    12.986355    -14.201159    0.000000    0.000000    0.000000    
4.067582    154.585205    -98.852287    -1.767295    0.367580    11.593988    4.174802    -3.680573    5.561944    -6.719026    1.227302    1.880746    15.018073    -5.578253    3.107757    0.677054    11.646763    0.272686    5.631573    4.247528    -15.029551    -30.655869    20.953293    -54.468655    -19.536953    8.277206    -93.967072    18.089312    -13.840818    -5.615904    -15.586143    -3.625501    2.633948    28.907454    -20.692307    71.213318    -8.598468    -9.851390    52.966465    -9.143000    -7.879926    28.165359    9.200830    -1.852273    -17.864628    -7.035231    33.834316    -31.776724    16.399292    -26.123249    41.461334    0.000000    0.000000    0.000000    -10.659095    -29.254742    0.121418    8.444171    17.658110    -9.477214    6.251627    12.944541    -14.309175    0.000000    0.000000    0.000000    
4.008011    154.583588    -98.836746    -1.814462    0.343487    11.741467    4.182051    -3.634284    5.505576    -6.689221    1.198461    1.860470    15.073285    -5.567860    3.110565    0.575083    11.589563    0.261684    5.663903    4.270154    -15.030556    -30.656761    20.973427    -54.496693    -19.501863    8.250093    -93.995041    18.056894    -13.838765    -5.625822    -15.552954    -3.636492    2.635442    28.850315    -20.717428    71.131012    -8.622934    -9.835515    52.967785    -9.169189    -7.859298    28.177414    9.289304    -1.859781    -18.156166    -7.192865    33.770287    -31.491234    16.351963    -26.171209    41.394608    0.000000    0.000000    0.000000    -10.640069    -29.233053    0.097575    8.443615    17.725136    -9.469246    6.235867    12.894753    -14.371308    0.000000    0.000000    0.000000    
3.949924    154.578125    -98.820175    -1.859232    0.321161    11.889259    4.203911    -3.584845    5.456417    -6.678009    1.158756    1.842041    15.104343    -5.554292    3.110729    0.514386    11.541322    0.255163    5.692289    4.286824    -15.045033    -30.630169    21.001677    -54.510201    -19.451220    8.223427    -94.037498    18.043541    -13.829031    -5.660570    -15.538646    -3.615005    2.618245    28.823290    -20.746628    71.081589    -8.665742    -9.826698    52.955566    -9.168424    -7.830377    28.182018    9.362846    -1.891259    -18.145388    -7.139213    33.803726    -31.552225    16.379358    -26.191372    41.333054    0.000000    0.000000    0.000000    -10.624368    -29.210136    0.074160    8.450059    17.782602    -9.499521    6.212536    12.856727    -14.415207    0.000000    0.000000    0.000000    
3.893600    154.569931    -98.802422    -1.884823    0.297212    12.032782    4.206773    -3.532606    5.420232    -6.666607    1.131567    1.828916    15.126236    -5.553718    3.106446    0.470427    11.478541    0.244926    5.728839    4.286609    -15.059991    -30.606661    21.037682    -54.534195    -19.422974    8.188889    -94.066200    18.054718    -13.847045    -5.688457    -15.506628    -3.613107    2.579016    28.801241    -20.787855    71.045181    -8.653318    -9.797119    52.956017    -9.205220    -7.816001    28.181818    9.417940    -1.909186    -18.140764    -7.094671    33.817928    -31.589621    16.404398    -26.208359    41.264538    0.000000    0.000000    0.000000    -10.624614    -29.187141    0.050910    8.451618    17.851114    -9.466481    6.164564    12.815830    -14.471132    0.000000    0.000000    0.000000    
3.842786    154.560364    -98.782478    -1.904506    0.279231    12.175983    4.219357    -3.499976    5.395688    -6.671623    1.125089    1.820692    15.133119    -5.565512    3.094476    0.453367    11.431355    0.228689    5.763152    4.284445    -15.112082    -30.579290    21.040991    -54.528763    -19.392756    8.175184    -94.100189    18.091547    -13.839402    -5.675102    -15.493275    -3.640280    2.544826    28.776520    -20.798754    70.972557    -8.657661    -9.788331    52.965012    -9.244730    -7.810548    28.141111    9.461509    -1.936053    -18.146477    -7.033525    33.850861    -31.701630    16.455765    -26.209860    41.249340    0.000000    0.000000    0.000000    -10.636991    -29.168722    0.007371    8.458108    17.919222    -9.425344    6.088416    12.791477    -14.517772    0.000000    0.000000    0.000000    
3.791301    154.548264    -98.770035    -1.911362    0.271264    12.311505    4.218205    -3.465100    5.371859    -6.669454    1.111132    1.812360    15.111971    -5.582573    3.077639    0.460123    11.390534    0.213949    5.786180    4.278782    -15.140956    -30.537550    21.041227    -54.581535    -19.670393    8.280245    -94.082657    18.984875    -14.076747    -5.640213    -15.491663    -3.657331    2.498581    28.744896    -20.788406    70.933395    -8.681481    -9.828066    52.948963    -9.278687    -7.849426    28.149279    9.489585    -1.968326    -18.191124    -7.009163    33.870392    -31.717775    16.473892    -26.230104    41.204983    0.000000    0.000000    0.000000    -10.667041    -29.175245    -0.016268    8.489408    18.011354    -9.420021    5.954255    12.773720    -14.526358    0.000000    0.000000    0.000000    
3.742169    154.536301    -98.759232    -1.914300    0.266575    12.448491    4.204332    -3.431247    5.354320    -6.640362    1.093798    1.805779    15.073645    -5.593790    3.060815    0.470465    11.339238    0.203459    5.787996    4.265964    -15.179366    -30.493471    21.070217    -54.575996    -19.646227    8.234830    -94.120644    19.031019    -14.107271    -5.618484    -15.519321    -3.674432    2.446904    28.791119    -20.808161    70.916756    -8.659563    -9.814120    52.949177    -9.258195    -7.840721    28.143438    9.510992    -2.003535    -18.226694    -6.967342    33.889053    -31.776552    16.518211    -26.232065    41.186695    0.000000    0.000000    0.000000    -10.701152    -29.192476    -0.053111    8.509886    18.120825    -9.369873    5.849300    12.754992    -14.578715    0.000000    0.000000    0.000000    
3.687086    154.524231    -98.749519    -1.913141    0.269546    12.597891    4.187790    -3.401426    5.330106    -6.642686    1.074375    1.797161    15.071754    -5.612749    3.041438    0.484874    11.301079    0.181832    5.828300    4.269020    -15.210873    -30.464878    21.056692    -54.593563    -19.648964    8.230622    -94.119629    19.079370    -14.118106    -5.629513    -15.488901    -3.694573    2.412785    28.731466    -20.790070    70.850533    -8.709047    -9.880959    52.944424    -9.217873    -7.873930    28.145758    9.531108    -2.056976    -18.310200    -6.947493    33.917786    -31.840740    16.544867    -26.235199    41.187481    0.000000    0.000000    0.000000    -10.743844    -29.212988    -0.075917    8.533349    18.226355    -9.386716    5.719795    12.738840    -14.569700    0.000000    0.000000    0.000000    
